<svg width="152" height="99" viewBox="0 0 152 99" fill="none" xmlns="http://www.w3.org/2000/svg">
<g filter="url(#filter0_d_230_11)">
<path d="M13.969 22.8026C14.0542 21.2689 14.5228 20.0334 15.3749 19.0962C16.2696 18.1589 17.5264 17.9033 19.1453 18.3293C19.9121 18.5423 20.466 18.8619 20.8068 19.2879C21.1902 19.7139 21.4459 20.2252 21.5737 20.8216C21.7441 21.3754 21.8293 21.9932 21.8293 22.6748C21.8293 23.3139 21.8293 23.9529 21.8293 24.592V33.4108C21.7867 33.7517 21.7654 34.0925 21.7654 34.4333C21.808 34.7315 21.8293 35.0084 21.8293 35.2641V36.0948H23.4269C23.8955 36.0948 24.3429 36.0948 24.7689 36.0948C25.2375 36.0948 25.6423 36.0735 25.9831 36.0309C28.3263 36.0309 30.3286 36.3717 31.9901 37.0534C33.6943 37.735 35.0576 38.6936 36.08 39.9291C37.1451 41.122 37.912 42.5705 38.3806 44.2746C38.8918 45.9362 39.1262 47.7681 39.0836 49.7704C39.041 52.1562 38.6575 54.2012 37.9333 55.9053C37.209 57.6094 36.1865 59.0153 34.8658 60.123C33.5452 61.2307 31.9475 62.0614 30.073 62.6153C28.2411 63.1265 26.1748 63.3821 23.8742 63.3821C21.2328 63.3821 19.2305 63.3608 17.8672 63.3182C16.5039 63.2756 15.524 62.8922 14.9276 62.168C14.3737 61.4437 14.0755 60.1869 14.0329 58.3976C13.9903 56.6082 13.969 53.9881 13.969 50.5373C13.969 47.2142 13.969 43.9338 13.969 40.696C14.0116 37.4581 14.0116 34.199 13.969 30.9185C13.969 30.4925 13.9477 30.0452 13.9051 29.5765C13.9051 29.1079 13.9051 28.5754 13.9051 27.9789C13.9051 27.3825 13.9051 26.6795 13.9051 25.8701C13.9051 25.018 13.9264 23.9955 13.969 22.8026ZM25.9192 56.2248C28.2624 56.097 29.8813 55.458 30.7759 54.3077C31.2446 53.6686 31.6067 52.9018 31.8623 52.0071C32.1179 51.1124 32.2245 50.2178 32.1818 49.3231C32.1392 48.4284 31.9475 47.5764 31.6067 46.7669C31.3085 45.9149 30.8185 45.2119 30.1369 44.6581C29.5405 44.1468 28.944 43.7847 28.3476 43.5717C27.7511 43.3161 27.1334 43.1669 26.4943 43.1243C25.8553 43.0391 25.1736 43.0178 24.4494 43.0604C23.7251 43.0604 22.8944 43.0817 21.9571 43.1243V50.7929L21.8293 56.097C22.2553 56.1396 22.7026 56.1822 23.1713 56.2248C23.9807 56.31 24.8967 56.31 25.9192 56.2248ZM59.3149 54.4355C59.8261 54.3077 60.3374 54.2225 60.8486 54.1799C61.4025 54.1373 61.8924 54.2012 62.3184 54.3716C62.7871 54.542 63.1705 54.8402 63.4687 55.2662C63.7669 55.6497 63.916 56.2035 63.916 56.9278C63.916 57.439 63.7882 57.9289 63.5326 58.3976C63.277 58.8662 62.9575 59.2922 62.574 59.6757C62.1906 60.0591 61.7646 60.3999 61.2959 60.6981C60.8273 60.9538 60.38 61.1668 59.9539 61.3372C58.7185 61.891 57.2912 62.3171 55.6723 62.6153C54.096 62.9135 52.4558 63.02 50.7517 62.9348C48.4511 62.8496 46.2357 62.4023 44.1056 61.5928C42.018 60.7407 40.3778 59.3561 39.1849 57.439C38.0772 55.5645 37.4169 53.4769 37.2039 51.1763C36.9908 48.8758 37.0974 46.703 37.5234 44.6581C37.992 42.1871 38.7802 40.1847 39.8879 38.651C41.0381 37.0747 42.4014 35.8179 43.9778 34.8806C45.8949 33.773 48.0464 33.1978 50.4321 33.1552C52.8179 33.1126 55.0972 33.5812 57.2699 34.5611C58.7185 35.2002 60.0179 36.0735 61.1681 37.1812C62.3184 38.2463 63.1918 39.5457 63.7882 41.0794C63.9586 41.4628 64.0865 41.9315 64.1717 42.4853C64.2995 43.0391 64.3847 43.6356 64.4273 44.2746C64.4699 44.8711 64.4699 45.4675 64.4273 46.064C64.3847 46.6604 64.2782 47.1929 64.1078 47.6616C63.8521 48.4284 63.5326 49.0249 63.1492 49.4509C62.7658 49.8769 62.2758 50.1965 61.6794 50.4095C61.0829 50.6225 60.3587 50.7716 59.5066 50.8568C58.6972 50.8994 57.7173 50.942 56.567 50.9846C55.5445 51.0272 54.5859 51.0485 53.6913 51.0485C52.7966 51.0485 51.8806 51.0485 50.9434 51.0485C50.0061 51.0059 49.0262 50.9846 48.0038 50.9846C47.0239 50.942 45.9162 50.8994 44.6807 50.8568C44.5529 51.7089 44.6594 52.4544 45.0002 53.0935C45.3837 53.6899 45.8949 54.2012 46.534 54.6272C47.173 55.0106 47.8973 55.3088 48.7067 55.5219C49.5162 55.7349 50.3043 55.8627 51.0712 55.9053C52.5197 55.9905 53.9043 55.884 55.225 55.5858C56.5457 55.2449 57.909 54.8615 59.3149 54.4355ZM56.567 42.038C55.7575 41.1007 54.9055 40.419 54.0108 39.993C53.3292 39.6948 52.6049 39.567 51.838 39.6096C51.1138 39.6096 50.4108 39.7161 49.7292 39.9291C48.4937 40.2273 47.4499 40.8664 46.5979 41.8463C46.5127 41.9315 46.3635 42.1445 46.1505 42.4853C45.9375 42.7835 45.7245 43.103 45.5115 43.4439C45.3411 43.7847 45.2133 44.1042 45.128 44.4024C45.0428 44.7007 45.0854 44.8498 45.2559 44.8498H57.7812C57.7386 44.2533 57.6321 43.7634 57.4617 43.38C57.2912 42.9539 56.993 42.5066 56.567 42.038ZM62.6275 40.5682C62.6275 40.0569 62.6275 39.4818 62.6275 38.8427C62.6275 38.1611 62.6488 37.4794 62.6914 36.7978C62.734 36.0735 62.7979 35.3919 62.8831 34.7528C63.0109 34.0712 63.1813 33.4747 63.3943 32.9635C63.7351 32.1966 64.2677 31.6854 64.9919 31.4298C65.7162 31.1316 66.5043 31.0037 67.3564 31.0464C68.2511 31.0464 68.954 31.1955 69.4653 31.4937C69.9765 31.7919 70.3599 32.1966 70.6155 32.7079C70.8712 33.1765 71.0203 33.7304 71.0629 34.3694C71.1481 34.9658 71.1907 35.6049 71.1907 36.2865C71.5741 35.6049 72.0854 35.051 72.7244 34.625C73.4061 34.199 74.0877 33.8582 74.7694 33.6025C75.451 33.3469 76.0688 33.1765 76.6226 33.0913C77.1764 32.9635 77.496 32.8996 77.5812 32.8996C78.6462 32.8144 79.6048 32.7931 80.4569 32.8357C81.3515 32.8783 82.3314 33.07 83.3965 33.4108C84.0781 33.6664 84.7811 34.0286 85.5053 34.4972C86.2296 34.9232 86.8686 35.4345 87.4225 36.0309C87.9763 36.6274 88.3385 37.2877 88.5089 38.012C88.7219 38.6936 88.6367 39.4179 88.2533 40.1847C87.6568 41.2498 86.9965 41.7823 86.2722 41.7823C85.548 41.7397 84.7598 41.6119 83.9077 41.3989C83.4391 41.3137 82.8853 41.122 82.2462 40.8238C81.6072 40.5256 81.0533 40.3338 80.5847 40.2486C79.1362 40.0356 77.8581 40.1421 76.7504 40.5682C75.6427 40.9942 74.6841 41.5054 73.8747 42.1019C72.9374 42.8261 72.128 43.6569 71.4463 44.5942V53.7964C71.4463 54.9467 71.425 56.1396 71.3824 57.3751C71.3824 58.6106 71.212 59.7396 70.8712 60.7621C70.5729 61.7419 70.0404 62.5514 69.2735 63.1904C68.5493 63.7869 67.4842 64.0425 66.0783 63.9573C65.3115 63.9147 64.6298 63.5526 64.0334 62.8709C63.4369 62.1467 63.0748 61.4437 62.947 60.7621C62.8618 60.123 62.7979 59.3561 62.7553 58.4615C62.7127 57.5668 62.6701 56.6295 62.6275 55.6497C62.6275 54.6698 62.6275 53.6899 62.6275 52.7101C62.6275 51.6876 62.6275 50.7503 62.6275 49.8982V40.5682ZM86.8014 40.5682C86.8014 40.0569 86.8014 39.4818 86.8014 38.8427C86.8014 38.1611 86.8227 37.4794 86.8653 36.7978C86.9079 36.0735 86.9718 35.3919 87.057 34.7528C87.1848 34.0712 87.3553 33.4747 87.5683 32.9635C87.9091 32.1966 88.4416 31.6854 89.1659 31.4298C89.8901 31.1316 90.6783 31.0037 91.5304 31.0464C92.425 31.0464 93.128 31.1955 93.6392 31.4937C94.1505 31.7919 94.5339 32.1966 94.7895 32.7079C95.0451 33.1765 95.1942 33.7304 95.2368 34.3694C95.322 34.9658 95.3646 35.6049 95.3646 36.2865C95.7481 35.6049 96.2593 35.051 96.8984 34.625C97.58 34.199 98.2617 33.8582 98.9433 33.6025C99.625 33.3469 100.243 33.1765 100.797 33.0913C101.35 32.9635 101.67 32.8996 101.755 32.8996C102.82 32.8144 103.779 32.7931 104.631 32.8357C105.525 32.8783 106.505 33.07 107.57 33.4108C108.252 33.6664 108.955 34.0286 109.679 34.4972C110.404 34.9232 111.043 35.4345 111.596 36.0309C112.15 36.6274 112.512 37.2877 112.683 38.012C112.896 38.6936 112.811 39.4179 112.427 40.1847C111.831 41.2498 111.17 41.7823 110.446 41.7823C109.722 41.7397 108.934 41.6119 108.082 41.3989C107.613 41.3137 107.059 41.122 106.42 40.8238C105.781 40.5256 105.227 40.3338 104.759 40.2486C103.31 40.0356 102.032 40.1421 100.924 40.5682C99.8167 40.9942 98.8581 41.5054 98.0486 42.1019C97.1114 42.8261 96.3019 43.6569 95.6203 44.5942V53.7964C95.6203 54.9467 95.599 56.1396 95.5564 57.3751C95.5564 58.6106 95.3859 59.7396 95.0451 60.7621C94.7469 61.7419 94.2144 62.5514 93.4475 63.1904C92.7233 63.7869 91.6582 64.0425 90.2523 63.9573C89.4854 63.9147 88.8038 63.5526 88.2073 62.8709C87.6109 62.1467 87.2487 61.4437 87.1209 60.7621C87.0357 60.123 86.9718 59.3561 86.9292 58.4615C86.8866 57.5668 86.844 56.6295 86.8014 55.6497C86.8014 54.6698 86.8014 53.6899 86.8014 52.7101C86.8014 51.6876 86.8014 50.7503 86.8014 49.8982V40.5682ZM137.498 34.6889C137.881 35.2854 138.052 35.9244 138.009 36.6061C138.009 37.5859 137.839 38.438 137.498 39.1623C137.413 39.3753 137.285 39.6522 137.114 39.993C136.987 40.3338 136.837 40.696 136.667 41.0794C136.539 41.4628 136.39 41.8249 136.22 42.1658C136.049 42.5066 135.922 42.7622 135.836 42.9326L135.709 43.2522C135.112 44.5729 134.537 45.8509 133.983 47.0864C133.429 48.3219 132.811 49.6426 132.13 51.0485C131.448 52.4118 130.788 53.7538 130.149 55.0745C129.552 56.3526 128.956 57.6094 128.359 58.8449C128.189 59.1857 128.04 59.5266 127.912 59.8674C127.784 60.1656 127.614 60.4851 127.401 60.826L124.333 67.4081C123.78 68.5158 123.247 69.6022 122.736 70.6673C122.267 71.7324 121.735 72.7974 121.138 73.8625C121.01 74.0755 120.883 74.2672 120.755 74.4377C120.67 74.6507 120.584 74.8637 120.499 75.0767C120.201 75.5879 119.754 76.0779 119.157 76.5465C118.603 77.0578 118.007 77.3347 117.368 77.3773C116.218 77.4625 115.216 77.1217 114.364 76.3548C113.853 76.0566 113.448 75.6306 113.15 75.0767C112.98 74.6933 112.895 74.2033 112.895 73.6069C112.937 73.3513 112.958 73.0957 112.958 72.84C113.001 72.627 113.044 72.414 113.086 72.201C113.171 71.988 113.235 71.775 113.278 71.5619C113.321 71.3489 113.384 71.1785 113.47 71.0507C113.597 70.7099 113.704 70.5395 113.789 70.5395L118.454 60.4425C118.241 59.9739 118.028 59.5053 117.815 59.0366C117.602 58.5254 117.41 58.0781 117.24 57.6946C116.686 56.3739 116.09 54.9893 115.451 53.5408C114.854 52.0497 114.237 50.5799 113.597 49.1314C112.958 47.6403 112.298 46.1918 111.616 44.7859C110.935 43.38 110.253 42.038 109.571 40.7599C109.316 40.3338 109.082 39.8865 108.869 39.4179C108.656 38.9066 108.485 38.4167 108.357 37.9481C108.229 37.4368 108.187 36.9256 108.229 36.4143C108.272 35.9031 108.464 35.3919 108.805 34.8806C109.145 34.2416 109.593 33.7943 110.147 33.5386C110.7 33.2404 111.276 33.1126 111.872 33.1552C112.511 33.1552 113.108 33.283 113.661 33.5386C114.215 33.7943 114.663 34.1351 115.003 34.5611C115.728 35.328 116.303 36.18 116.729 37.1173C117.155 38.0546 117.56 39.0131 117.943 39.993C118.752 41.6971 119.583 43.4865 120.435 45.361C121.287 47.2355 122.139 49.0675 122.991 50.8568L126.315 43.8273C126.655 43.1456 126.954 42.4853 127.209 41.8463C127.507 41.2072 127.806 40.5895 128.104 39.993C128.445 39.2688 128.764 38.5232 129.062 37.7563C129.403 36.9895 129.787 36.2865 130.213 35.6475C130.298 35.4771 130.383 35.328 130.468 35.2002C130.554 35.0723 130.639 34.9232 130.724 34.7528C131.107 34.2416 131.448 33.8369 131.746 33.5386C131.959 33.3682 132.13 33.2404 132.258 33.1552C132.428 33.0274 132.62 32.9422 132.833 32.8996C133.131 32.8144 133.408 32.7718 133.664 32.7718C133.962 32.7292 134.239 32.7292 134.494 32.7718C134.92 32.8996 135.432 33.0913 136.028 33.3469C136.667 33.6025 137.157 34.0499 137.498 34.6889Z" fill="#523273"/>
</g>
<g filter="url(#filter1_i_230_11)">
<path d="M28.4214 71.9096C28.5785 72.1191 28.6746 72.3636 28.7095 72.6429C28.7095 72.7477 28.7008 72.8525 28.6833 72.9572C28.6833 73.0445 28.6746 73.1318 28.6571 73.2191C28.6396 73.4112 28.5261 73.5945 28.3166 73.7691C28.1944 73.8564 28.0373 73.9437 27.8452 74.031C27.7404 74.066 27.6269 74.0922 27.5047 74.1096C27.4 74.1096 27.2777 74.1183 27.1381 74.1358C27.0333 74.1707 26.9198 74.1882 26.7976 74.1882C26.6754 74.1882 26.5531 74.1882 26.4309 74.1882H25.2523L19.7785 74.2144V74.2929L19.7523 78.562C19.892 78.562 20.0404 78.562 20.1976 78.562C20.3722 78.562 20.5817 78.5533 20.8262 78.5358C21.5246 78.5358 22.1444 78.5358 22.6857 78.5358C23.2444 78.5358 23.8555 78.5445 24.519 78.562H24.6762C24.8682 78.562 25.0603 78.5707 25.2523 78.5882C25.4619 78.5882 25.6714 78.5882 25.8809 78.5882C26.073 78.6056 26.265 78.6318 26.4571 78.6668C26.6492 78.6842 26.8412 78.7279 27.0333 78.7977C27.3476 78.9025 27.5746 79.0683 27.7142 79.2953C27.9063 79.5223 28.0023 79.758 28.0023 80.0025C28.0023 80.1072 28.0023 80.212 28.0023 80.3168C28.0023 80.4041 27.9849 80.5001 27.95 80.6048C27.9325 80.7445 27.819 80.9191 27.6095 81.1287C27.4698 81.2509 27.3039 81.3295 27.1119 81.3644C27.0246 81.3993 26.9198 81.4342 26.7976 81.4691C26.6928 81.4866 26.5793 81.5041 26.4571 81.5215C26.3349 81.539 26.2127 81.5564 26.0904 81.5739C25.9857 81.5739 25.8635 81.5739 25.7238 81.5739H24.519L19.7 81.6001L19.6214 87.6763V87.8858C19.6214 87.9731 19.6127 88.0604 19.5952 88.1477C19.5952 88.2175 19.5865 88.2961 19.569 88.3834C19.5341 88.4707 19.4992 88.5667 19.4642 88.6715C19.4468 88.7588 19.4206 88.8461 19.3857 88.9334C19.2635 89.1779 19.15 89.3437 19.0452 89.431C18.8531 89.5707 18.6174 89.6667 18.3381 89.7191C17.8666 89.8239 17.4214 89.7715 17.0023 89.562C16.915 89.5096 16.8277 89.4485 16.7404 89.3787C16.6706 89.2914 16.6095 89.1866 16.5571 89.0644C16.5222 88.9945 16.5047 88.9421 16.5047 88.9072L16.4262 88.7501C16.3738 88.6628 16.3389 88.5755 16.3214 88.4882C16.3039 88.3834 16.2865 88.2874 16.269 88.2001C16.269 88.1128 16.2603 88.0255 16.2428 87.9382C16.2428 87.8509 16.2341 87.7636 16.2166 87.6763C16.1992 87.5366 16.1992 87.3969 16.2166 87.2572V86.8382L16.2428 84.7953L16.269 81.0239C16.2865 80.4652 16.2952 79.8977 16.2952 79.3215C16.2952 78.7453 16.2952 78.1517 16.2952 77.5406C16.2777 76.912 16.269 76.3533 16.269 75.8644C16.2865 75.3755 16.3127 74.8429 16.3476 74.2668V74.1358C16.365 73.9437 16.3738 73.7691 16.3738 73.612C16.3738 73.4374 16.3912 73.2628 16.4262 73.0882C16.4611 72.7041 16.5484 72.3636 16.6881 72.0668C16.8103 71.7699 16.9849 71.5604 17.2119 71.4382C17.4738 71.281 17.7531 71.2025 18.05 71.2025C18.1896 71.2025 18.3031 71.2112 18.3904 71.2287V71.2025C18.7047 71.2025 18.9579 71.2025 19.15 71.2025C19.342 71.2025 19.5254 71.2025 19.7 71.2025C19.8746 71.2025 20.0666 71.2025 20.2762 71.2025C20.4857 71.185 20.765 71.1763 21.1142 71.1763C22.5111 71.1588 23.8904 71.1588 25.2523 71.1763H25.3833C25.5754 71.1937 25.7674 71.2025 25.9595 71.2025C26.169 71.2025 26.3785 71.2112 26.5881 71.2287C26.7801 71.2287 26.9722 71.2549 27.1642 71.3072C27.3563 71.3422 27.5484 71.3945 27.7404 71.4644C28.0373 71.5517 28.2642 71.7001 28.4214 71.9096ZM44.7366 72.5644C44.8414 73.4025 44.9025 74.3802 44.9199 75.4977C44.9374 76.5977 44.9199 77.7152 44.8676 78.8501C44.8326 79.9675 44.7541 81.0326 44.6318 82.0453C44.5096 83.0406 44.3612 83.8437 44.1866 84.4548C44.0644 84.8215 43.916 85.2056 43.7414 85.6072C43.5842 85.9914 43.4096 86.3406 43.2176 86.6548C42.9382 87.1263 42.5977 87.5453 42.1961 87.912C41.7945 88.2612 41.3493 88.5667 40.8604 88.8287C40.389 89.0731 39.8826 89.2652 39.3414 89.4048C38.8176 89.5445 38.2938 89.6231 37.7699 89.6406C36.8446 89.6755 35.9628 89.5445 35.1247 89.2477C34.3041 88.9334 33.5446 88.4445 32.8461 87.781C32.3223 87.2747 31.9033 86.7334 31.589 86.1572C31.2747 85.581 31.0303 84.9787 30.8557 84.3501C30.6811 83.7041 30.5676 83.0406 30.5152 82.3596C30.4803 81.6787 30.4628 80.9802 30.4628 80.2644C30.4628 79.9326 30.4541 79.5223 30.4366 79.0334C30.4366 78.5271 30.4366 78.012 30.4366 77.4882C30.4366 76.9469 30.4366 76.4231 30.4366 75.9168C30.4366 75.4104 30.4453 74.9826 30.4628 74.6334C30.4628 74.4064 30.4628 74.162 30.4628 73.9001C30.4628 73.6207 30.4715 73.3501 30.489 73.0882C30.5239 72.8088 30.5763 72.5469 30.6461 72.3025C30.716 72.0406 30.8207 71.8049 30.9604 71.5953C31.1176 71.3683 31.3358 71.2025 31.6152 71.0977C31.8946 70.9929 32.1826 70.9406 32.4795 70.9406C32.7938 70.9406 33.0906 71.0017 33.37 71.1239C33.6493 71.2461 33.8763 71.4207 34.0509 71.6477C34.1382 71.7874 34.1993 71.9271 34.2342 72.0668C34.2692 72.2064 34.2953 72.3636 34.3128 72.5382C34.3477 73.1144 34.3652 73.7691 34.3652 74.5025C34.3826 75.2358 34.3826 75.9517 34.3652 76.6501C34.3652 77.331 34.3565 77.9596 34.339 78.5358C34.3215 79.112 34.3128 79.5398 34.3128 79.8191C34.3128 80.8668 34.3652 81.8183 34.4699 82.6739C34.5747 83.512 34.8192 84.2104 35.2033 84.7691C35.5525 85.2755 35.9628 85.5985 36.4342 85.7382C36.9057 85.8779 37.3771 85.9215 37.8485 85.8691C38.285 85.8168 38.7215 85.6596 39.158 85.3977C39.612 85.1183 39.9699 84.7168 40.2319 84.1929C40.3366 84.0009 40.4239 83.7826 40.4938 83.5382C40.5636 83.2937 40.616 83.0668 40.6509 82.8572C40.7207 82.1937 40.7819 81.4255 40.8342 80.5525C40.8866 79.662 40.9303 78.7541 40.9652 77.8287C41.0001 76.9033 41.0176 75.9953 41.0176 75.1049C41.0176 74.2144 41.0088 73.4112 40.9914 72.6953C41.0263 72.381 41.1223 72.0929 41.2795 71.831C41.4192 71.6041 41.6199 71.4033 41.8819 71.2287C42.1438 71.0541 42.5017 70.9668 42.9557 70.9668C43.3223 70.9842 43.6192 71.0803 43.8461 71.2549C44.0731 71.412 44.2565 71.5866 44.3961 71.7787C44.5533 72.0056 44.6668 72.2676 44.7366 72.5644ZM60.6025 82.0453C60.6898 82.2898 60.7509 82.5691 60.7858 82.8834C60.8382 83.1802 60.8644 83.4858 60.8644 83.8001C60.8644 84.1144 60.8382 84.4287 60.7858 84.7429C60.7509 85.0398 60.6985 85.3017 60.6287 85.5287C60.3493 86.5064 59.7906 87.3271 58.9525 87.9906C58.1144 88.6366 57.1541 89.108 56.0716 89.4048C55.0065 89.7017 53.8977 89.8064 52.7454 89.7191C51.6104 89.6318 50.5977 89.3437 49.7073 88.8548C49.1485 88.5406 48.6684 88.1564 48.2668 87.7025C47.8652 87.2485 47.5247 86.7421 47.2454 86.1834C47.1406 85.9914 47.0708 85.7731 47.0358 85.5287C47.0184 85.2668 47.0446 85.0223 47.1144 84.7953C47.1843 84.5509 47.2978 84.3414 47.4549 84.1668C47.612 83.9747 47.8303 83.8437 48.1097 83.7739C48.2843 83.739 48.4763 83.7215 48.6858 83.7215C48.9128 83.7215 49.1311 83.7564 49.3406 83.8263C49.5501 83.8787 49.7422 83.9747 49.9168 84.1144C50.0914 84.2366 50.2311 84.4112 50.3358 84.6382C50.5279 85.0048 50.7985 85.3453 51.1477 85.6596C51.5144 85.9564 51.8985 86.2009 52.3001 86.3929C52.8763 86.585 53.4525 86.6636 54.0287 86.6287C54.6224 86.5937 55.1549 86.4628 55.6263 86.2358C56.1152 86.0088 56.5081 85.7033 56.8049 85.3191C57.1017 84.9175 57.2501 84.4636 57.2501 83.9572C57.2501 83.5382 57.189 83.1977 57.0668 82.9358C56.9446 82.6564 56.77 82.4295 56.543 82.2548C56.3335 82.0628 56.0716 81.9056 55.7573 81.7834C55.4604 81.6612 55.1287 81.5564 54.762 81.4691C54.343 81.3818 53.9152 81.3207 53.4787 81.2858C53.0597 81.2509 52.6319 81.2072 52.1954 81.1548C51.7589 81.1025 51.3311 81.0326 50.912 80.9453C50.493 80.858 50.0827 80.7271 49.6811 80.5525C48.8779 80.2207 48.2668 79.7144 47.8478 79.0334C47.4287 78.3525 47.1755 77.6191 47.0882 76.8334C47.0184 76.0477 47.1144 75.2707 47.3763 74.5025C47.6382 73.7168 48.0573 73.0445 48.6335 72.4858C49.1922 71.9795 49.8557 71.6215 50.6239 71.412C51.4097 71.185 52.2739 71.0541 53.2168 71.0191C53.7406 71.0017 54.2644 71.0191 54.7882 71.0715C55.3295 71.1239 55.8446 71.2112 56.3335 71.3334C56.8398 71.4556 57.3025 71.6128 57.7216 71.8049C58.1581 71.9969 58.5335 72.2239 58.8477 72.4858C59.0747 72.6604 59.3017 72.8961 59.5287 73.1929C59.7557 73.4723 59.9303 73.7779 60.0525 74.1096C60.1747 74.4239 60.2096 74.7295 60.1573 75.0263C60.1223 75.3231 59.939 75.5763 59.6073 75.7858C59.3279 75.9604 59.0573 76.039 58.7954 76.0215C58.5509 75.9866 58.3152 75.908 58.0882 75.7858C57.8612 75.6461 57.643 75.489 57.4335 75.3144C57.2239 75.1398 57.0319 74.9826 56.8573 74.8429C56.3858 74.4937 55.8009 74.258 55.1025 74.1358C54.4041 74.0136 53.7493 73.9874 53.1382 74.0572C52.7541 74.1096 52.3962 74.1969 52.0644 74.3191C51.7327 74.4414 51.4446 74.6072 51.2001 74.8168C50.9731 75.0263 50.7898 75.2882 50.6501 75.6025C50.5279 75.8993 50.4843 76.2398 50.5192 76.6239C50.5366 76.9033 50.6152 77.139 50.7549 77.331C50.912 77.5231 51.0954 77.6802 51.3049 77.8025C51.5319 77.9247 51.7763 78.0207 52.0382 78.0906C52.3001 78.1604 52.562 78.2128 52.8239 78.2477C53.6097 78.3525 54.3954 78.431 55.1811 78.4834C55.9668 78.5358 56.735 78.7104 57.4858 79.0072C58.2541 79.3041 58.9089 79.7056 59.4501 80.212C59.9914 80.7183 60.3755 81.3295 60.6025 82.0453ZM63.782 86.8906L63.8082 84.8215L63.8344 80.9715C63.8518 80.4128 63.8606 79.8366 63.8606 79.2429C63.8606 78.6493 63.8606 78.0382 63.8606 77.4096C63.8606 76.781 63.8606 76.2223 63.8606 75.7334C63.8606 75.2445 63.878 74.6945 63.9129 74.0834V73.9787C63.9304 73.8041 63.9391 73.6295 63.9391 73.4549C63.9566 73.2628 63.9653 73.0707 63.9653 72.8787C63.9828 72.5644 64.0788 72.2239 64.2534 71.8572C64.3756 71.6128 64.559 71.4033 64.8034 71.2287C65.0828 71.089 65.3534 71.0191 65.6153 71.0191C65.755 71.0191 65.8772 71.0279 65.982 71.0453C66.1042 71.0453 66.2177 71.0541 66.3225 71.0715C66.5494 71.1064 66.7502 71.2112 66.9248 71.3858C67.0296 71.4731 67.1256 71.6128 67.2129 71.8049C67.2479 71.9096 67.274 72.0144 67.2915 72.1191C67.3264 72.2064 67.3526 72.3025 67.3701 72.4072C67.3875 72.5295 67.3963 72.6429 67.3963 72.7477C67.4137 72.8525 67.4225 72.9572 67.4225 73.062C67.4225 73.1842 67.4137 73.2977 67.3963 73.4025C67.3963 73.4898 67.3963 73.5858 67.3963 73.6906V74.1358L67.2391 87.7287V87.9906C67.2391 88.0429 67.2304 88.1128 67.2129 88.2001C67.2129 88.2699 67.2042 88.3572 67.1867 88.462C67.1518 88.5493 67.1169 88.6453 67.082 88.7501C67.0645 88.8374 67.0383 88.9334 67.0034 89.0382C66.951 89.1255 66.8899 89.2128 66.8201 89.3001C66.7677 89.3699 66.6979 89.4398 66.6106 89.5096C66.4709 89.6493 66.2439 89.7453 65.9296 89.7977C65.4582 89.9025 65.0129 89.8588 64.5939 89.6667C64.3844 89.5271 64.236 89.3525 64.1487 89.1429C64.0963 89.0906 64.0701 89.0382 64.0701 88.9858C64.0526 88.9509 64.0352 88.9247 64.0177 88.9072C64.0002 88.8898 63.9828 88.8636 63.9653 88.8287C63.9304 88.7414 63.9042 88.6541 63.8867 88.5667C63.8693 88.462 63.8606 88.3572 63.8606 88.2525C63.8431 88.1652 63.8256 88.0779 63.8082 87.9906C63.8082 87.9033 63.7994 87.816 63.782 87.7287C63.7645 87.589 63.7645 87.4406 63.782 87.2834V86.8906ZM74.9463 71.7525C76.1161 71.316 77.1725 71.1239 78.1153 71.1763C79.0756 71.2287 79.9312 71.4731 80.682 71.9096C81.4328 72.3287 82.0701 72.8961 82.5939 73.612C83.1352 74.3279 83.5717 75.131 83.9034 76.0215C84.1653 76.685 84.3661 77.3834 84.5058 78.1168C84.6455 78.8501 84.7241 79.5834 84.7415 80.3168C84.7764 81.0326 84.7502 81.7398 84.6629 82.4382C84.5931 83.1366 84.4709 83.7826 84.2963 84.3763C84.1915 84.7779 84.0693 85.1445 83.9296 85.4763C83.7899 85.808 83.6241 86.1398 83.432 86.4715C82.9955 87.2223 82.428 87.8334 81.7296 88.3048C81.0487 88.7763 80.2979 89.108 79.4772 89.3001C78.9185 89.4398 78.3423 89.5096 77.7487 89.5096C77.155 89.4921 76.5701 89.4136 75.9939 89.2739C75.4177 89.1167 74.859 88.8985 74.3177 88.6191C73.7939 88.3223 73.3137 87.9556 72.8772 87.5191C72.336 86.9953 71.8907 86.3929 71.5415 85.712C71.1923 85.0136 70.9217 84.289 70.7296 83.5382C70.5376 82.7699 70.4153 82.0017 70.363 81.2334C70.3106 80.4652 70.3106 79.7318 70.363 79.0334C70.4153 78.3874 70.5376 77.6977 70.7296 76.9644C70.9391 76.231 71.236 75.5239 71.6201 74.8429C72.0042 74.162 72.4669 73.5509 73.0082 73.0096C73.5669 72.4509 74.213 72.0318 74.9463 71.7525ZM81.0749 82.962C81.2844 82.1414 81.3717 81.216 81.3368 80.1858C81.3018 79.1556 81.136 78.1866 80.8391 77.2787C80.6471 76.7199 80.4026 76.231 80.1058 75.812C79.8264 75.3755 79.486 75.0437 79.0844 74.8168C78.7003 74.5898 78.2463 74.4763 77.7225 74.4763C77.1987 74.4763 76.6137 74.6334 75.9677 74.9477C75.5836 75.1398 75.2518 75.4017 74.9725 75.7334C74.7106 76.0652 74.4923 76.4406 74.3177 76.8596C74.1606 77.2787 74.0296 77.7152 73.9249 78.1691C73.8376 78.6231 73.7852 79.0596 73.7677 79.4787C73.7328 79.9326 73.7241 80.4128 73.7415 80.9191C73.759 81.408 73.8114 81.9056 73.8987 82.412C74.0034 82.9009 74.1431 83.3723 74.3177 83.8263C74.4923 84.2628 74.728 84.6556 75.0249 85.0048C75.4788 85.5287 76.0026 85.8953 76.5963 86.1048C77.2074 86.2969 77.8098 86.3231 78.4034 86.1834C79.3637 85.9739 80.0971 85.3366 80.6034 84.2715C80.8129 83.8874 80.9701 83.4509 81.0749 82.962ZM101.132 87.6763C101.114 87.9731 101.071 88.2874 101.001 88.6191C100.948 88.9509 100.783 89.2215 100.503 89.431C100.294 89.6056 100.058 89.7104 99.7961 89.7453C99.5342 89.7802 99.2723 89.7628 99.0104 89.6929C98.766 89.6406 98.5302 89.5533 98.3033 89.431C98.0763 89.2914 97.8929 89.1255 97.7533 88.9334C97.1596 88.2001 96.6096 87.4493 96.1033 86.681C95.6144 85.8953 95.1168 85.1096 94.6104 84.3239L92.4104 80.9977C92.1136 80.5263 91.7993 80.0025 91.4676 79.4263C91.1358 78.8326 90.7953 78.2826 90.4461 77.7763L90.3676 87.781V88.0167C90.3676 88.2961 90.3152 88.5755 90.2104 88.8548C90.1231 89.1167 89.966 89.3437 89.739 89.5358C89.5644 89.6755 89.3374 89.7715 89.058 89.8239C88.6215 89.9112 88.2549 89.885 87.958 89.7453C87.6787 89.6056 87.4517 89.4136 87.2771 89.1691C87.1199 88.9247 87.0064 88.6453 86.9366 88.331C86.8842 87.9993 86.8755 87.6763 86.9104 87.362V86.9167L86.9628 84.8739L86.989 81.0763C87.0064 80.5175 87.0152 79.9501 87.0152 79.3739C87.0152 78.7802 87.0152 78.1779 87.0152 77.5668C86.9977 76.816 86.9977 76.0215 87.0152 75.1834C87.0501 74.3453 87.085 73.5596 87.1199 72.8263C87.1549 72.4247 87.2509 72.0842 87.408 71.8049C87.4779 71.5604 87.6612 71.3509 87.958 71.1763C88.1501 71.0541 88.3945 70.9755 88.6914 70.9406C89.0056 70.9056 89.2763 70.9144 89.5033 70.9668C89.5906 71.0017 89.6779 71.0453 89.7652 71.0977C89.8525 71.1326 89.9398 71.1763 90.0271 71.2287C90.1144 71.2985 90.1929 71.3683 90.2628 71.4382C90.3501 71.508 90.4287 71.5866 90.4985 71.6739C90.5858 71.7612 90.6644 71.8572 90.7342 71.962C90.8041 72.0493 90.8739 72.1366 90.9437 72.2239C90.9961 72.3287 91.0485 72.4247 91.1009 72.512C91.1533 72.5993 91.2144 72.6866 91.2842 72.7739L91.5723 73.1929L97.6223 82.7263V80.9977C97.6223 80.439 97.6136 79.8715 97.5961 79.2953C97.5961 78.7017 97.5874 78.0906 97.5699 77.462C97.5699 76.7287 97.5699 75.9429 97.5699 75.1049C97.5874 74.2668 97.6136 73.481 97.6485 72.7477C97.6485 72.4509 97.7358 72.1104 97.9104 71.7263C97.9977 71.4993 98.1461 71.316 98.3556 71.1763C98.5652 71.0366 98.8009 70.9406 99.0628 70.8882C99.3247 70.8358 99.5866 70.8358 99.8485 70.8882C100.11 70.9406 100.337 71.0453 100.529 71.2025C100.582 71.2549 100.634 71.316 100.687 71.3858C100.739 71.4556 100.783 71.5342 100.818 71.6215C100.905 71.8485 100.957 72.0493 100.975 72.2239C101.027 72.4683 101.053 72.6866 101.053 72.8787C101.053 75.0612 101.053 77.2874 101.053 79.5572C101.071 81.8271 101.088 84.0533 101.106 86.2358C101.106 86.4802 101.114 86.7247 101.132 86.9691C101.149 87.1961 101.149 87.4318 101.132 87.6763Z" fill="#523273"/>
</g>
<g filter="url(#filter2_i_230_11)">
<mask id="mask0_230_11" style="mask-type:luminance" maskUnits="userSpaceOnUse" x="92" y="7" width="18" height="24">
<path d="M92.7099 7.46582H109.809V30.6362H92.7099V7.46582Z" fill="white"/>
</mask>
<g mask="url(#mask0_230_11)">
<mask id="mask1_230_11" style="mask-type:luminance" maskUnits="userSpaceOnUse" x="91" y="6" width="20" height="26">
<path d="M91.3568 7.85033L108.664 6.23315L110.94 30.0186L93.6331 31.6357L91.3568 7.85033Z" fill="white"/>
</mask>
<g mask="url(#mask1_230_11)">
<mask id="mask2_230_11" style="mask-type:luminance" maskUnits="userSpaceOnUse" x="91" y="6" width="20" height="26">
<path d="M91.3568 7.85033L108.664 6.23315L110.94 30.0186L93.6331 31.6357L91.3568 7.85033Z" fill="white"/>
</mask>
<g mask="url(#mask2_230_11)">
<path d="M101.997 19.6337C103.291 18.5846 104.856 17.7004 106.528 17.7693C108.2 17.8381 109.892 19.184 109.803 20.8353C109.755 21.7313 109.211 22.5436 108.517 23.122C107.824 23.7006 106.986 24.0805 106.16 24.4533C104.718 25.1046 103.276 25.7559 101.833 26.4071C100.507 27.0056 98.9342 28.0639 97.5127 28.3579C95.8662 28.6984 96.8832 26.7658 97.224 25.9692C97.72 24.809 98.3501 23.7049 99.0973 22.6849C99.9071 21.5795 100.878 20.4473 101.997 19.6337ZM103.316 28.4483C102.586 28.7143 100.632 29.3711 100.306 30.1394C99.9194 31.052 102.426 30.4255 102.996 30.3665C104.321 30.2291 105.645 30.0918 106.97 29.9543C107.306 29.9197 107.649 29.8829 107.957 29.7451C108.265 29.6073 108.538 29.3482 108.6 29.02C108.682 28.5889 108.373 28.1581 107.976 27.9617C107.58 27.7651 107.117 27.7542 106.674 27.774C105.524 27.8407 104.398 28.0538 103.316 28.4487L103.316 28.4483ZM92.7833 20.7572C92.8665 22.1387 92.9012 23.9881 93.2641 25.5243C93.3874 26.0462 94.1267 26.0782 94.2909 25.5669C94.7215 24.2273 95.3878 22.2819 96.7049 20.0571C98.2276 17.485 100.401 15.1864 100.998 12.2652C101.281 10.8768 101.161 9.26898 100.127 8.28691C99.2066 7.41143 97.7273 7.26578 96.5463 7.74832C95.3653 8.23087 94.4714 9.25239 93.9252 10.3943C93.3354 11.6271 93.1121 13.0006 92.9511 14.3508C92.698 16.4767 92.6543 18.6206 92.7833 20.7572Z" fill="#49326B"/>
</g>
</g>
</g>
</g>
<defs>
<filter id="filter0_d_230_11" x="11.8099" y="17.6902" width="128.358" height="64.0054" filterUnits="userSpaceOnUse" color-interpolation-filters="sRGB">
<feFlood flood-opacity="0" result="BackgroundImageFix"/>
<feColorMatrix in="SourceAlpha" type="matrix" values="0 0 0 0 0 0 0 0 0 0 0 0 0 0 0 0 0 0 127 0" result="hardAlpha"/>
<feOffset dy="2.09524"/>
<feGaussianBlur stdDeviation="1.04762"/>
<feComposite in2="hardAlpha" operator="out"/>
<feColorMatrix type="matrix" values="0 0 0 0 0 0 0 0 0 0 0 0 0 0 0 0 0 0 0.25 0"/>
<feBlend mode="normal" in2="BackgroundImageFix" result="effect1_dropShadow_230_11"/>
<feBlend mode="normal" in="SourceGraphic" in2="effect1_dropShadow_230_11" result="shape"/>
</filter>
<filter id="filter1_i_230_11" x="15.6666" y="70.8096" width="85.4914" height="19.6691" filterUnits="userSpaceOnUse" color-interpolation-filters="sRGB">
<feFlood flood-opacity="0" result="BackgroundImageFix"/>
<feBlend mode="normal" in="SourceGraphic" in2="BackgroundImageFix" result="shape"/>
<feColorMatrix in="SourceAlpha" type="matrix" values="0 0 0 0 0 0 0 0 0 0 0 0 0 0 0 0 0 0 127 0" result="hardAlpha"/>
<feOffset dx="-0.523809" dy="0.523809"/>
<feGaussianBlur stdDeviation="0.785714"/>
<feComposite in2="hardAlpha" operator="arithmetic" k2="-1" k3="1"/>
<feColorMatrix type="matrix" values="0 0 0 0 0 0 0 0 0 0 0 0 0 0 0 0 0 0 1 0"/>
<feBlend mode="normal" in2="shape" result="effect1_innerShadow_230_11"/>
</filter>
<filter id="filter2_i_230_11" x="92.7128" y="7.47583" width="17.0939" height="25.2503" filterUnits="userSpaceOnUse" color-interpolation-filters="sRGB">
<feFlood flood-opacity="0" result="BackgroundImageFix"/>
<feBlend mode="normal" in="SourceGraphic" in2="BackgroundImageFix" result="shape"/>
<feColorMatrix in="SourceAlpha" type="matrix" values="0 0 0 0 0 0 0 0 0 0 0 0 0 0 0 0 0 0 127 0" result="hardAlpha"/>
<feOffset dy="2.09524"/>
<feGaussianBlur stdDeviation="1.04762"/>
<feComposite in2="hardAlpha" operator="arithmetic" k2="-1" k3="1"/>
<feColorMatrix type="matrix" values="0 0 0 0 0 0 0 0 0 0 0 0 0 0 0 0 0 0 1 0"/>
<feBlend mode="normal" in2="shape" result="effect1_innerShadow_230_11"/>
</filter>
</defs>
</svg>
