<svg width="1268" height="120" viewBox="0 0 1268 120" fill="none" xmlns="http://www.w3.org/2000/svg">
<rect x="34" width="411.8" height="120" fill="#D9D9D9"/>
<rect x="34" width="41.596" height="120" fill="#523273"/>
<rect x="34" y="97.2415" width="41.596" height="22.7586" fill="#362466"/>
<rect x="110.953" width="41.596" height="120" fill="#523273"/>
<rect x="110.953" y="97.2415" width="41.596" height="22.7586" fill="#362466"/>
<rect x="185.825" width="41.596" height="120" fill="#523273"/>
<rect x="185.825" y="97.2415" width="41.596" height="22.7586" fill="#362466"/>
<rect x="259.658" width="41.596" height="120" fill="#523273"/>
<rect x="259.658" y="97.2415" width="41.596" height="22.7586" fill="#362466"/>
<rect x="334.531" width="41.596" height="120" fill="#523273"/>
<rect x="334.531" y="97.2415" width="41.596" height="22.7586" fill="#362466"/>
<rect x="409.404" width="41.596" height="120" fill="#523273"/>
<rect x="409.404" y="97.2415" width="41.596" height="22.7586" fill="#362466"/>
<rect x="451" width="366" height="120" fill="#D9D9D9"/>
<rect x="484.616" width="41.2702" height="120" fill="#523273"/>
<rect x="484.616" y="97.2415" width="41.2702" height="22.7586" fill="#362466"/>
<rect x="558.903" width="41.2702" height="120" fill="#523273"/>
<rect x="558.903" y="97.2415" width="41.2702" height="22.7586" fill="#362466"/>
<rect x="632.157" width="41.2702" height="120" fill="#523273"/>
<rect x="632.157" y="97.2415" width="41.2702" height="22.7586" fill="#362466"/>
<rect x="706.443" width="41.2702" height="120" fill="#523273"/>
<rect x="706.443" y="97.2415" width="41.2702" height="22.7586" fill="#362466"/>
<rect x="780.73" width="41.2702" height="120" fill="#523273"/>
<rect x="780.73" y="97.2415" width="41.2702" height="22.7586" fill="#362466"/>
<rect x="823" width="366" height="120" fill="#D9D9D9"/>
<rect x="856.616" width="41.2702" height="120" fill="#523273"/>
<rect x="856.616" y="97.2415" width="41.2702" height="22.7586" fill="#362466"/>
<rect x="930.903" width="41.2702" height="120" fill="#523273"/>
<rect x="930.903" y="97.2415" width="41.2702" height="22.7586" fill="#362466"/>
<rect x="1004.16" width="41.2702" height="120" fill="#523273"/>
<rect x="1004.16" y="97.2415" width="41.2702" height="22.7586" fill="#362466"/>
<rect x="1078.44" width="41.2702" height="120" fill="#523273"/>
<rect x="1078.44" y="97.2415" width="41.2702" height="22.7586" fill="#362466"/>
<rect x="1152.73" width="41.2702" height="120" fill="#523273"/>
<rect x="1152.73" y="97.2415" width="41.2702" height="22.7586" fill="#362466"/>
<rect x="1194" width="69" height="120" fill="#D9D9D9"/>
<rect x="1226.73" width="41.2702" height="120" fill="#523273"/>
<rect x="1226.73" y="97.2415" width="41.2702" height="22.7586" fill="#362466"/>
<rect width="33" height="120" fill="#D9D9D9"/>
</svg>
